name Walk4.mot
datacolumns 19
datarows 20
range 1.71300000 1.73200000
endheader

                time	   L_ground_force_vx	   L_ground_force_vy	   L_ground_force_vz	   L_ground_force_px	   L_ground_force_py	   L_ground_force_pz	   R_ground_force_vx	   R_ground_force_vy	   R_ground_force_vz	   R_ground_force_px	   R_ground_force_py	   R_ground_force_pz	   L_ground_torque_x	   L_ground_torque_y	   L_ground_torque_z	   R_ground_torque_x	   R_ground_torque_y	   R_ground_torque_z	
          1.71300000	          0.01019543	          0.02155732	         -0.00232658	         -0.00002761	          0.00000000	          0.00001284	        -28.74595498	        423.61387543	        -24.13622713	          0.63805233	          0.00000000	          0.07877522	          0.00000000	          0.00009393	          0.00000000	          0.00000000	          1.58848109	          0.00000000	
          1.71400000	          0.00889380	          0.01834490	         -0.00204296	         -0.00002589	          0.00000000	          0.00001222	        -28.46125582	        422.50990753	        -23.80086942	          0.63863055	          0.00000000	          0.07874404	          0.00000000	          0.00008581	          0.00000000	          0.00000000	          1.54777228	          0.00000000	
          1.71500000	          0.00766924	          0.01533630	         -0.00177574	         -0.00002421	          0.00000000	          0.00001160	        -28.17594758	        421.46657990	        -23.46799734	          0.63918911	          0.00000000	          0.07871215	          0.00000000	          0.00007806	          0.00000000	          0.00000000	          1.50734350	          0.00000000	
          1.71600000	          0.00651981	          0.01252554	         -0.00152453	         -0.00002258	          0.00000000	          0.00001099	        -27.88988057	        420.48229519	        -23.13783590	          0.63972822	          0.00000000	          0.07867965	          0.00000000	          0.00007067	          0.00000000	          0.00000000	          1.46714886	          0.00000000	
          1.71700000	          0.00544348	          0.00990644	         -0.00128891	         -0.00002101	          0.00000000	          0.00001040	        -27.60290635	        419.55541034	        -22.81060430	          0.64024809	          0.00000000	          0.07864664	          0.00000000	          0.00006364	          0.00000000	          0.00000000	          1.42714229	          0.00000000	
          1.71800000	          0.00443809	          0.00747258	         -0.00106846	         -0.00001949	          0.00000000	          0.00000981	        -27.31487733	        418.68424384	        -22.48651565	          0.64074900	          0.00000000	          0.07861321	          0.00000000	          0.00005697	          0.00000000	          0.00000000	          1.38727741	          0.00000000	
          1.71900000	          0.00350141	          0.00521743	         -0.00086271	         -0.00001802	          0.00000000	          0.00000924	        -27.02564696	        417.86708292	        -22.16577669	          0.64123120	          0.00000000	          0.07857944	          0.00000000	          0.00005065	          0.00000000	          0.00000000	          1.34750754	          0.00000000	
          1.72000000	          0.00263114	          0.00313431	         -0.00067120	         -0.00001661	          0.00000000	          0.00000868	        -26.73507072	        417.10219061	        -21.84858774	          0.64169501	          0.00000000	          0.07854542	          0.00000000	          0.00004468	          0.00000000	          0.00000000	          1.30778573	          0.00000000	
          1.72100000	          0.00182493	          0.00121645	         -0.00049344	         -0.00001526	          0.00000000	          0.00000813	        -26.44300804	        416.38781298	        -21.53514274	          0.64214074	          0.00000000	          0.07851123	          0.00000000	          0.00003904	          0.00000000	          0.00000000	          1.26806504	          0.00000000	
          1.72200000	          0.00108036	         -0.00054293	         -0.00032892	         -0.00001397	          0.00000000	          0.00000760	        -26.14932481	        415.72218618	        -21.22562925	          0.64256872	          0.00000000	          0.07847694	          0.00000000	          0.00003374	          0.00000000	          0.00000000	          1.22829913	          0.00000000	
          1.72300000	          0.00039502	         -0.00215068	         -0.00017715	         -0.00001273	          0.00000000	          0.00000709	        -25.85389604	        415.10354289	        -20.92022859	          0.64297930	          0.00000000	          0.07844264	          0.00000000	          0.00002876	          0.00000000	          0.00000000	          1.18844306	          0.00000000	
          1.72400000	         -0.00023354	         -0.00361360	         -0.00003761	         -0.00001155	          0.00000000	          0.00000660	        -25.55660841	        414.53011821	        -20.61911602	          0.64337285	          0.00000000	          0.07840841	          0.00000000	          0.00002410	          0.00000000	          0.00000000	          1.14845409	          0.00000000	
          1.72500000	         -0.00080778	         -0.00493848	          0.00009020	         -0.00001043	          0.00000000	          0.00000612	        -25.25736232	        414.00015521	        -20.32246138	          0.64374975	          0.00000000	          0.07837431	          0.00000000	          0.00001974	          0.00000000	          0.00000000	          1.10829229	          0.00000000	
          1.72600000	         -0.00133014	         -0.00613205	          0.00020681	         -0.00000936	          0.00000000	          0.00000566	        -24.95607370	        413.51191061	        -20.03043008	          0.64411040	          0.00000000	          0.07834044	          0.00000000	          0.00001567	          0.00000000	          0.00000000	          1.06792088	          0.00000000	
          1.72700000	         -0.00180306	         -0.00720097	          0.00031272	         -0.00000835	          0.00000000	          0.00000521	        -24.65267525	        413.06366086	        -19.74318450	          0.64445524	          0.00000000	          0.07830686	          0.00000000	          0.00001190	          0.00000000	          0.00000000	          1.02730606	          0.00000000	
          1.72800000	         -0.00222896	         -0.00815179	          0.00040844	         -0.00000740	          0.00000000	          0.00000479	        -24.34711728	        412.65370857	        -19.46088561	          0.64478470	          0.00000000	          0.07827365	          0.00000000	          0.00000840	          0.00000000	          0.00000000	          0.98641683	          0.00000000	
          1.72900000	         -0.00261022	         -0.00899097	          0.00049448	         -0.00000649	          0.00000000	          0.00000438	        -24.03936790	        412.28038906	        -19.18369425	          0.64509925	          0.00000000	          0.07824088	          0.00000000	          0.00000516	          0.00000000	          0.00000000	          0.94522471	          0.00000000	
          1.73000000	         -0.00294921	         -0.00972482	          0.00057134	         -0.00000564	          0.00000000	          0.00000399	        -23.72941267	        411.94207686	        -18.91177183	          0.64539936	          0.00000000	          0.07820862	          0.00000000	          0.00000218	          0.00000000	          0.00000000	          0.90370368	          0.00000000	
          1.73100000	         -0.00324823	         -0.01035953	          0.00063950	         -0.00000484	          0.00000000	          0.00000362	        -23.41725358	        411.63719155	        -18.64528023	          0.64568552	          0.00000000	          0.07817692	          0.00000000	         -0.00000055	          0.00000000	          0.00000000	          0.86183034	          0.00000000	
          1.73200000	         -0.00350955	         -0.01090113	          0.00069946	         -0.00000409	          0.00000000	          0.00000327	        -23.10290763	        411.36420255	        -18.38438102	          0.64595820	          0.00000000	          0.07814585	          0.00000000	         -0.00000305	          0.00000000	          0.00000000	          0.81958423	          0.00000000	
